<?xml version="1.0" encoding="UTF-8" standalone="no"?>
<!DOCTYPE svg PUBLIC "-//W3C//DTD SVG 1.1//EN" "http://www.w3.org/Graphics/SVG/1.1/DTD/svg11.dtd">
<svg width="1895px" height="706px" version="1.1" xmlns="http://www.w3.org/2000/svg" xmlns:xlink="http://www.w3.org/1999/xlink" xml:space="preserve" style="fill-rule:evenodd;clip-rule:evenodd;stroke-linejoin:round;stroke-miterlimit:2;">
    <g transform="matrix(1,0,0,1,-972.75,-727.15)">
        <g transform="matrix(0.864479,0,0,0.913414,295.551,88.5528)">
            <path d="M2760.76,699.132C2817.54,699.132 2871.99,720.481 2912.15,758.481C2952.3,796.482 2974.85,848.021 2974.85,901.762L2974.85,1269.1C2974.85,1322.84 2952.3,1374.38 2912.15,1412.38C2871.99,1450.38 2817.54,1471.73 2760.76,1471.73L997.46,1471.73C940.678,1471.73 886.22,1450.38 846.069,1412.38C805.917,1374.38 783.361,1322.84 783.361,1269.1L783.361,901.762C783.361,848.021 805.917,796.482 846.069,758.481C886.22,720.481 940.678,699.132 997.46,699.132L2760.76,699.132Z" style="fill:rgb(255,131,250);"/>
        </g>
        <g transform="matrix(1,0,0,1,375.983,98.0067)">
            <g transform="matrix(0.836581,0,0,0.836581,1285.38,-228.222)">
                <path d="M-354.366,1394.23L-234.128,1365.79L-342.069,1337.36L-326.524,1263.92L-130.348,1327.77L-147.656,1408.87L-370.603,1472.7L-354.366,1394.23ZM-352.867,1528.04L-326.582,1501.75L-274.013,1554.32L-300.297,1580.61C-330.39,1610.7 -371.954,1629.32 -417.831,1629.32C-509.583,1629.32 -584.074,1554.83 -584.074,1463.07C-584.074,1371.32 -509.583,1296.83 -417.831,1296.83L-380.659,1296.83L-380.659,1371.17L-417.831,1371.17C-468.551,1371.17 -509.73,1412.35 -509.73,1463.07C-509.73,1513.79 -468.551,1554.97 -417.831,1554.97C-392.472,1554.97 -369.501,1544.67 -352.867,1528.04Z"/>
            </g>
            <g transform="matrix(1,0,0,1,1312.06,-366.928)">
                <path d="M-30.274,1498.26L119.042,1201.35L194.775,1201.35L37.284,1498.26L-30.274,1498.26ZM-64.698,1498.26L-95.68,1201.35L-27.262,1201.35L-0.152,1498.26L-64.698,1498.26Z" style="fill-rule:nonzero;"/>
            </g>
            <g transform="matrix(1,0,0,1,1312.06,-366.928)">
                <path d="M157.769,1498.26L221.024,1201.35L287.721,1201.35L224.466,1498.26L157.769,1498.26ZM187.03,1498.26L200.369,1435.87L394.866,1435.87L381.527,1498.26L187.03,1498.26ZM212.848,1376.92L225.327,1317.96L399.6,1317.96L387.121,1376.92L212.848,1376.92ZM236.945,1263.75L250.284,1201.35L443.06,1201.35L429.721,1263.75L236.945,1263.75Z" style="fill-rule:nonzero;"/>
            </g>
            <g transform="matrix(1,0,0,1,1312.06,-366.928)">
                <path d="M474.042,1398L486.951,1335.61L566.558,1335.61C581.188,1335.61 593.093,1333.74 602.273,1330.01C611.453,1326.28 618.194,1321.19 622.497,1314.74C626.8,1308.28 628.952,1300.75 628.952,1292.15C628.952,1283.54 625.581,1276.65 618.839,1271.49C612.098,1266.33 601.125,1263.75 585.921,1263.75L502.442,1263.75L515.782,1201.35L597.97,1201.35C619.198,1201.35 637.271,1204.94 652.188,1212.11C667.105,1219.28 678.437,1229.18 686.182,1241.8C693.927,1254.42 697.8,1268.91 697.8,1285.26C697.8,1306.49 692.35,1325.64 681.449,1342.71C670.548,1359.78 654.626,1373.26 633.685,1383.15C612.743,1393.05 587.356,1398 557.521,1398L474.042,1398ZM423.266,1498.26L486.521,1201.35L553.218,1201.35L489.963,1498.26L423.266,1498.26ZM594.097,1498.26L538.588,1369.6L602.703,1369.6L663.806,1498.26L594.097,1498.26Z" style="fill-rule:nonzero;"/>
            </g>
            <g transform="matrix(1,0,0,1,1312.06,-366.928)">
                <path d="M763.637,1498.26L826.891,1201.35L893.158,1201.35L829.903,1498.26L763.637,1498.26ZM727.491,1263.75L740.831,1201.35L979.219,1201.35L965.879,1263.75L727.491,1263.75Z" style="fill-rule:nonzero;"/>
            </g>
        </g>
    </g>
</svg>
